<?xml version="1.0" standalone="no"?>
<!DOCTYPE svg PUBLIC "-//W3C//DTD SVG 20010904//EN" "http://www.w3.org/TR/2001/REC-SVG-20010904/DTD/svg10.dtd">
<svg version="1.0" xmlns="http://www.w3.org/2000/svg" width="512px" height="512px" viewBox="0 0 512 512" preserveAspectRatio="xMidYMid meet">
  <g transform="translate(0.000000,512.000000) scale(0.100000,-0.100000)" fill="#000000" stroke="none">
    <path d="M0 2560 l0 -2560 2560 0 2560 0 0 2560 0 2560 -2560 0 -2560 0 0 -2560z m1280 1280 l0 -640 -40 0 -40 0 0 640 0 640 40 0 40 0 0 -640z m1600 0 l0 -640 -40 0 -40 0 0 640 0 640 40 0 40 0 0 -640z m-960 -1280 l0 -640 -640 0 -640 0 0 40 0 40 600 0 600 0 0 600 0 600 40 0 40 0 0 -640z m1600 0 l0 -640 -640 0 -640 0 0 40 0 40 600 0 600 0 0 600 0 600 40 0 40 0 0 -640z"/>
  </g>
</svg> 